# xmcd
#
# Track frame offsets: 
#        150
#        17424
#        39882
#        56391
#
# Disc length: 1067 seconds
#
# Revision: 0
# Processed by: cddbd v1.4PL0 Copyright (c) Steve Scherf et al.
# Submitted via: ExactAudioCopy v0.90b4
#
DISCID=1f042904
DTITLE=Van Morrison - Sweet Thing y Olé, disc 2
DYEAR=2003
DGENRE=Celtic
TTITLE0=Have I Told You Lately
TTITLE1=Georgia On My Mind
TTITLE2=Precious Time
TTITLE3=Gloria
EXTD=
EXTT0=
EXTT1=
EXTT2=
EXTT3=
PLAYORDER=
